<mxfile host="app.diagrams.net" modified="2022-11-27T13:24:42.950Z" agent="5.0 (Windows NT 10.0; Win64; x64) AppleWebKit/537.36 (KHTML, like Gecko) Chrome/106.0.0.0 YaBrowser/22.11.0.2500 Yowser/2.5 Safari/537.36" version="20.6.0" etag="KwY3BmY8Sz9uHS52JStM" type="github">
  <diagram id="191LiJFnvSCAaFtsr3j-" name="Страница 1">
    <mxGraphModel dx="522" dy="620" grid="1" gridSize="10" guides="1" tooltips="1" connect="1" arrows="1" fold="1" page="1" pageScale="1" pageWidth="2336" pageHeight="1654" math="0" shadow="0">
      <root>
        <mxCell id="0" />
        <mxCell id="1" parent="0" />
        <mxCell id="S1BvxJJ4v-O4Dj1TeZdC-1" value="Сборка (88)" style="rounded=0;whiteSpace=wrap;html=1;strokeColor=#FFFFFF;fillColor=#CCFFFF;" vertex="1" parent="1">
          <mxGeometry x="1400" y="860" width="120" height="60" as="geometry" />
        </mxCell>
        <mxCell id="S1BvxJJ4v-O4Dj1TeZdC-2" value="Монтаж резисторов R1-R7, конденсаторов C1-C9 (8858.01)" style="rounded=0;whiteSpace=wrap;html=1;strokeColor=#FFFFFF;fillColor=#CCFFFF;" vertex="1" parent="1">
          <mxGeometry x="1140" y="860" width="160" height="60" as="geometry" />
        </mxCell>
        <mxCell id="S1BvxJJ4v-O4Dj1TeZdC-3" value="Монтаж микросхем DA1, DD1, транзисторов VT1 (8858.02)" style="rounded=0;whiteSpace=wrap;html=1;strokeColor=#FFFFFF;fillColor=#CCFFFF;" vertex="1" parent="1">
          <mxGeometry x="1150" y="960" width="170" height="60" as="geometry" />
        </mxCell>
        <mxCell id="S1BvxJJ4v-O4Dj1TeZdC-4" value="Монтаж выводов X1-X4 (8858.03)" style="rounded=0;whiteSpace=wrap;html=1;strokeColor=#FFFFFF;fillColor=#CCFFFF;" vertex="1" parent="1">
          <mxGeometry x="1400" y="1070" width="120" height="60" as="geometry" />
        </mxCell>
        <mxCell id="S1BvxJJ4v-O4Dj1TeZdC-5" value="Монтаж кнопки SB1, переключателя SA1, Светодиода HL1 (8858.03)" style="rounded=0;whiteSpace=wrap;html=1;strokeColor=#FFFFFF;fillColor=#CCFFFF;" vertex="1" parent="1">
          <mxGeometry x="1190" y="1040" width="170" height="60" as="geometry" />
        </mxCell>
        <mxCell id="S1BvxJJ4v-O4Dj1TeZdC-8" value="" style="endArrow=classic;html=1;rounded=0;entryX=1;entryY=0.5;entryDx=0;entryDy=0;exitX=0;exitY=0.5;exitDx=0;exitDy=0;strokeColor=#33FFFF;" edge="1" parent="1" source="S1BvxJJ4v-O4Dj1TeZdC-1" target="S1BvxJJ4v-O4Dj1TeZdC-2">
          <mxGeometry width="50" height="50" relative="1" as="geometry">
            <mxPoint x="1300" y="1000" as="sourcePoint" />
            <mxPoint x="1350" y="950" as="targetPoint" />
          </mxGeometry>
        </mxCell>
        <mxCell id="S1BvxJJ4v-O4Dj1TeZdC-9" value="" style="endArrow=classic;html=1;rounded=0;entryX=1;entryY=0;entryDx=0;entryDy=0;exitX=0;exitY=1;exitDx=0;exitDy=0;strokeColor=#33FFFF;" edge="1" parent="1" source="S1BvxJJ4v-O4Dj1TeZdC-1" target="S1BvxJJ4v-O4Dj1TeZdC-3">
          <mxGeometry width="50" height="50" relative="1" as="geometry">
            <mxPoint x="1410" y="940" as="sourcePoint" />
            <mxPoint x="1310" y="940" as="targetPoint" />
          </mxGeometry>
        </mxCell>
        <mxCell id="S1BvxJJ4v-O4Dj1TeZdC-10" value="" style="endArrow=classic;html=1;rounded=0;entryX=1;entryY=0;entryDx=0;entryDy=0;exitX=0.25;exitY=1;exitDx=0;exitDy=0;strokeColor=#33FFFF;" edge="1" parent="1" source="S1BvxJJ4v-O4Dj1TeZdC-1" target="S1BvxJJ4v-O4Dj1TeZdC-5">
          <mxGeometry width="50" height="50" relative="1" as="geometry">
            <mxPoint x="1420" y="910" as="sourcePoint" />
            <mxPoint x="1320" y="910" as="targetPoint" />
          </mxGeometry>
        </mxCell>
        <mxCell id="S1BvxJJ4v-O4Dj1TeZdC-11" value="" style="endArrow=classic;html=1;rounded=0;entryX=0.5;entryY=0;entryDx=0;entryDy=0;exitX=0.5;exitY=1;exitDx=0;exitDy=0;strokeColor=#33FFFF;" edge="1" parent="1" source="S1BvxJJ4v-O4Dj1TeZdC-1" target="S1BvxJJ4v-O4Dj1TeZdC-4">
          <mxGeometry width="50" height="50" relative="1" as="geometry">
            <mxPoint x="1510" y="980" as="sourcePoint" />
            <mxPoint x="1410" y="980" as="targetPoint" />
          </mxGeometry>
        </mxCell>
      </root>
    </mxGraphModel>
  </diagram>
</mxfile>
